<svg xmlns="http://www.w3.org/2000/svg" width="1542" height="541" viewBox="0 0 1542 541">
  <metadata><?xpacket begin="﻿" id="W5M0MpCehiHzreSzNTczkc9d"?>
<x:xmpmeta xmlns:x="adobe:ns:meta/" x:xmptk="Adobe XMP Core 5.6-c138 79.159824, 2016/09/14-01:09:01        ">
   <rdf:RDF xmlns:rdf="http://www.w3.org/1999/02/22-rdf-syntax-ns#">
      <rdf:Description rdf:about=""/>
   </rdf:RDF>
</x:xmpmeta>
                                                                                                    
                                                                                                    
                                                                                                    
                                                                                                    
                                                                                                    
                                                                                                    
                                                                                                    
                                                                                                    
                                                                                                    
                                                                                                    
                                                                                                    
                                                                                                    
                                                                                                    
                                                                                                    
                                                                                                    
                                                                                                    
                                                                                                    
                                                                                                    
                                                                                                    
                                                                                                    
                           
<?xpacket end="w"?></metadata>
<defs>
    <style>
      .cls-1 {
        fill: #333;
      }

      .cls-1, .cls-2, .cls-3 {
        fill-rule: evenodd;
      }

      .cls-2 {
        fill: #ffc600;
      }

      .cls-3 {
        fill: #fff;
      }
    </style>
  </defs>
  <path id="圆角矩形_1_拷贝_2" data-name="圆角矩形 1 拷贝 2" class="cls-1" d="M2.446,16h662.9L717.79,489H45.223Z"/>
  <path id="圆角矩形_1_拷贝_2-2" data-name="圆角矩形 1 拷贝 2" class="cls-2" d="M1495.63,534H583.555L513.183,79H1533.81Z"/>
  <path id="US" class="cls-3" d="M298.425,123.584H207.971q0.964,14.886,1.45,29.862T209.9,183.5q0,4.059-.193,12.37t-0.87,19.135q-0.68,10.826-1.74,23.386t-2.8,25.127q-1.74,12.565-4.252,24.159a143.514,143.514,0,0,1-5.9,20.488,49.552,49.552,0,0,1-7.828,14.206q-4.449,5.317-10.05,5.315-4.835,0-8.408-4.446a39.352,39.352,0,0,1-6.088-11.4,90.44,90.44,0,0,1-3.962-15.366q-1.451-8.408-2.223-16.428t-1.063-14.5q-0.29-6.474-.29-9.761a503.627,503.627,0,0,1,3.769-61.559Q161.777,163.6,167,133.248l-90.454-3.479q-5.028,26.868-7.731,53.828a540.049,540.049,0,0,0-2.706,54.021q0,17.591,1.643,36.626a264.2,264.2,0,0,0,5.895,37.3,179.182,179.182,0,0,0,11.79,34.6,103.451,103.451,0,0,0,19.328,28.605,87.434,87.434,0,0,0,28.315,19.521q16.525,7.248,38.946,7.248a90.22,90.22,0,0,0,34.79-6.475,99.029,99.029,0,0,0,28.315-17.781,128.4,128.4,0,0,0,22.42-26.479,213.922,213.922,0,0,0,17.1-32.568,266.232,266.232,0,0,0,12.273-36.239q4.929-18.846,8.021-37.206t4.446-35.564q1.35-17.2,1.353-31.5,0-27.442-2.32-54.118h0Zm211.156,137.9a63.018,63.018,0,0,0-13.142-22.13,64.577,64.577,0,0,0-20.971-14.883,78.909,78.909,0,0,0-27.832-6.571,57.285,57.285,0,0,0-7.925-.29q-4.833.1-10.437,0t-11.306-.676a54.537,54.537,0,0,1-10.437-2.03,20.894,20.894,0,0,1-7.731-4.059,9.977,9.977,0,0,1-1.257-13.239,15.289,15.289,0,0,1,5.605-4.349,37.083,37.083,0,0,1,7.925-2.609,86.448,86.448,0,0,1,8.794-1.45q4.349-.48,8.311-0.58t6.475-.1a137.981,137.981,0,0,1,28.122,2.995,236.719,236.719,0,0,1,27.542,7.442l7.344-78.471a115.3,115.3,0,0,0-17.975-6.765,191.336,191.336,0,0,0-39.428-6.861q-10.053-.675-19.521-0.677a127.1,127.1,0,0,0-41.169,6.765A111.229,111.229,0,0,0,345.3,132.378a95.219,95.219,0,0,0-24.546,30.732q-9.183,18.073-9.181,40.878a85.861,85.861,0,0,0,5.412,30.828,73.281,73.281,0,0,0,15.172,24.546A68.737,68.737,0,0,0,355.539,275.5a76.5,76.5,0,0,0,30.248,5.8h6.185q3.864,0,8.311.387t9.084,1.256a37.126,37.126,0,0,1,8.311,2.513,17.371,17.371,0,0,1,5.991,4.252,9.127,9.127,0,0,1,2.32,6.281q0,5.413-3.286,8.311a21.423,21.423,0,0,1-8.021,4.349,41.828,41.828,0,0,1-9.954,1.739q-5.219.291-8.891,0.29a158.1,158.1,0,0,1-39.332-5.122,135.736,135.736,0,0,1-36.433-14.979l-8.5,79.631q8.309,3.869,19.038,8.214t22.324,8.118q11.6,3.77,22.9,6.281a96.412,96.412,0,0,0,20.777,2.513,155.4,155.4,0,0,0,45.9-6.571,107.7,107.7,0,0,0,37.3-19.715,92.276,92.276,0,0,0,25.126-32.954q9.177-19.809,9.18-46.29A84.541,84.541,0,0,0,509.581,261.488Z"/>
  <path id="OKAY" class="cls-1" d="M810.5,272.01a96.772,96.772,0,0,0-57.853-57.076q-20.639-7.77-45.677-7.771a99.615,99.615,0,0,0-29.531,4.318,104,104,0,0,0-25.991,12.088,108.71,108.71,0,0,0-21.673,18.478,117.314,117.314,0,0,0-16.492,23.487,120.706,120.706,0,0,0-14.075,56.644,111.051,111.051,0,0,0,3.886,29.53,115.537,115.537,0,0,0,10.88,26.509,107.269,107.269,0,0,0,16.924,22.45,105.8,105.8,0,0,0,22.191,17.27,112.389,112.389,0,0,0,26.336,11.138,108.462,108.462,0,0,0,29.617,3.972,106.458,106.458,0,0,0,56.9-16.06,105.566,105.566,0,0,0,21.932-18.219,113.434,113.434,0,0,0,16.579-23.4A118.646,118.646,0,0,0,814.906,348a125.223,125.223,0,0,0,3.626-30.307Q818.532,292.476,810.5,272.01Zm-71.064,64.847a39.568,39.568,0,0,1-6.908,12.52,32.917,32.917,0,0,1-10.966,8.635,32.527,32.527,0,0,1-14.592,3.195,27.449,27.449,0,0,1-14.248-3.627,33.027,33.027,0,0,1-10.275-9.5,43.1,43.1,0,0,1-6.217-13.125,52.566,52.566,0,0,1-2.072-14.506,42.823,42.823,0,0,1,2.417-14.42,35.223,35.223,0,0,1,6.994-11.916,33.215,33.215,0,0,1,10.967-8.031,34.375,34.375,0,0,1,14.506-2.935,28.761,28.761,0,0,1,14.074,3.367,32.32,32.32,0,0,1,10.276,8.808,39.6,39.6,0,0,1,6.3,12.434,48.658,48.658,0,0,1,2.159,14.42A45.128,45.128,0,0,1,739.438,336.857ZM962.559,185.4l-53.535,82.548,6.217-78.058-80.476-4.49-5.526,264.567,71.841-2.763,2.763-78.058,52.5,74.6,80.128-14.161L966.358,307.326,1049.6,192.311Zm235.731,6.907-96.02,4.836-68.73,230.029,88.07,8.634,8.64-39.028h39.37l10.36,39.028,85.66-11.052ZM1137.5,343.937l12.78-60.1,13.12,60.1h-25.9ZM1408.28,199.91l-43.86,74.6-13.82-74.6-88.07,11.052,49.39,128.14-2.07,107.416h81.85l4.49-108.107,94.99-132.629Z"/>
</svg>
